<mxfile host="app.diagrams.net" agent="Mozilla/5.0 (Windows NT 10.0; Win64; x64) AppleWebKit/537.36 (KHTML, like Gecko) Chrome/131.0.0.0 Safari/537.36" version="26.0.6" pages="3">
  <diagram id="Ht1M8jgEwFfnCIfOTk4-" name="Sample AWS Event-Based">
    <mxGraphModel dx="1166" dy="1432" grid="1" gridSize="10" guides="1" tooltips="1" connect="1" arrows="1" fold="1" page="1" pageScale="1" pageWidth="1169" pageHeight="827" math="0" shadow="0">
      <root>
        <mxCell id="0" />
        <mxCell id="1" parent="0" />
        <mxCell id="UEzPUAAOIrF-is8g5C7q-164" style="edgeStyle=orthogonalEdgeStyle;rounded=0;orthogonalLoop=1;jettySize=auto;html=1;startArrow=none;startFill=0;endArrow=open;endFill=0;strokeColor=#808080;strokeWidth=2;" parent="1" source="UEzPUAAOIrF-is8g5C7q-146" target="UEzPUAAOIrF-is8g5C7q-148" edge="1">
          <mxGeometry relative="1" as="geometry">
            <Array as="points">
              <mxPoint x="237" y="-616" />
              <mxPoint x="237" y="-525" />
            </Array>
          </mxGeometry>
        </mxCell>
        <mxCell id="UEzPUAAOIrF-is8g5C7q-165" style="edgeStyle=orthogonalEdgeStyle;rounded=0;orthogonalLoop=1;jettySize=auto;html=1;startArrow=none;startFill=0;endArrow=open;endFill=0;strokeColor=#808080;strokeWidth=2;" parent="1" source="UEzPUAAOIrF-is8g5C7q-147" target="UEzPUAAOIrF-is8g5C7q-148" edge="1">
          <mxGeometry relative="1" as="geometry">
            <Array as="points">
              <mxPoint x="237" y="-456" />
              <mxPoint x="237" y="-525" />
            </Array>
          </mxGeometry>
        </mxCell>
        <mxCell id="UEzPUAAOIrF-is8g5C7q-162" style="edgeStyle=orthogonalEdgeStyle;rounded=0;orthogonalLoop=1;jettySize=auto;html=1;startArrow=none;startFill=0;endArrow=open;endFill=0;strokeColor=#808080;strokeWidth=2;" parent="1" source="UEzPUAAOIrF-is8g5C7q-148" target="UEzPUAAOIrF-is8g5C7q-144" edge="1">
          <mxGeometry relative="1" as="geometry">
            <Array as="points">
              <mxPoint x="325" y="-674" />
              <mxPoint x="295" y="-674" />
            </Array>
          </mxGeometry>
        </mxCell>
        <mxCell id="UEzPUAAOIrF-is8g5C7q-163" style="edgeStyle=orthogonalEdgeStyle;rounded=0;orthogonalLoop=1;jettySize=auto;html=1;startArrow=none;startFill=0;endArrow=open;endFill=0;strokeColor=#808080;strokeWidth=2;" parent="1" source="UEzPUAAOIrF-is8g5C7q-148" target="UEzPUAAOIrF-is8g5C7q-145" edge="1">
          <mxGeometry relative="1" as="geometry">
            <Array as="points">
              <mxPoint x="325" y="-674" />
              <mxPoint x="455" y="-674" />
            </Array>
          </mxGeometry>
        </mxCell>
        <mxCell id="UEzPUAAOIrF-is8g5C7q-166" style="edgeStyle=orthogonalEdgeStyle;rounded=0;orthogonalLoop=1;jettySize=auto;html=1;startArrow=none;startFill=0;endArrow=open;endFill=0;strokeColor=#808080;strokeWidth=2;" parent="1" source="UEzPUAAOIrF-is8g5C7q-148" target="UEzPUAAOIrF-is8g5C7q-150" edge="1">
          <mxGeometry relative="1" as="geometry" />
        </mxCell>
        <mxCell id="UEzPUAAOIrF-is8g5C7q-167" style="edgeStyle=orthogonalEdgeStyle;rounded=0;orthogonalLoop=1;jettySize=auto;html=1;startArrow=none;startFill=0;endArrow=open;endFill=0;strokeColor=#808080;strokeWidth=2;" parent="1" source="UEzPUAAOIrF-is8g5C7q-148" target="UEzPUAAOIrF-is8g5C7q-154" edge="1">
          <mxGeometry relative="1" as="geometry">
            <mxPoint x="786" y="-525" as="targetPoint" />
            <Array as="points">
              <mxPoint x="686" y="-525" />
              <mxPoint x="686" y="-525" />
            </Array>
          </mxGeometry>
        </mxCell>
        <mxCell id="UEzPUAAOIrF-is8g5C7q-168" style="edgeStyle=orthogonalEdgeStyle;rounded=0;orthogonalLoop=1;jettySize=auto;html=1;startArrow=none;startFill=0;endArrow=open;endFill=0;strokeColor=#808080;strokeWidth=2;" parent="1" source="UEzPUAAOIrF-is8g5C7q-148" target="UEzPUAAOIrF-is8g5C7q-149" edge="1">
          <mxGeometry relative="1" as="geometry">
            <Array as="points">
              <mxPoint x="346" y="-643" />
            </Array>
          </mxGeometry>
        </mxCell>
        <mxCell id="UEzPUAAOIrF-is8g5C7q-170" style="edgeStyle=orthogonalEdgeStyle;rounded=0;orthogonalLoop=1;jettySize=auto;html=1;startArrow=none;startFill=0;endArrow=open;endFill=0;strokeColor=#808080;strokeWidth=2;" parent="1" source="UEzPUAAOIrF-is8g5C7q-150" target="UEzPUAAOIrF-is8g5C7q-151" edge="1">
          <mxGeometry relative="1" as="geometry" />
        </mxCell>
        <mxCell id="UEzPUAAOIrF-is8g5C7q-171" style="edgeStyle=orthogonalEdgeStyle;rounded=0;orthogonalLoop=1;jettySize=auto;html=1;startArrow=none;startFill=0;endArrow=open;endFill=0;strokeColor=#808080;strokeWidth=2;" parent="1" source="UEzPUAAOIrF-is8g5C7q-151" target="UEzPUAAOIrF-is8g5C7q-152" edge="1">
          <mxGeometry relative="1" as="geometry" />
        </mxCell>
        <mxCell id="UEzPUAAOIrF-is8g5C7q-169" style="edgeStyle=orthogonalEdgeStyle;rounded=0;orthogonalLoop=1;jettySize=auto;html=1;startArrow=none;startFill=0;endArrow=open;endFill=0;strokeColor=#808080;strokeWidth=2;" parent="1" source="UEzPUAAOIrF-is8g5C7q-153" target="UEzPUAAOIrF-is8g5C7q-148" edge="1">
          <mxGeometry relative="1" as="geometry">
            <Array as="points">
              <mxPoint x="346" y="-394" />
            </Array>
          </mxGeometry>
        </mxCell>
        <mxCell id="UEzPUAAOIrF-is8g5C7q-172" style="edgeStyle=orthogonalEdgeStyle;rounded=0;orthogonalLoop=1;jettySize=auto;html=1;startArrow=none;startFill=0;endArrow=open;endFill=0;strokeColor=#808080;strokeWidth=2;" parent="1" source="UEzPUAAOIrF-is8g5C7q-156" target="UEzPUAAOIrF-is8g5C7q-158" edge="1">
          <mxGeometry relative="1" as="geometry">
            <Array as="points">
              <mxPoint x="950" y="-243" />
              <mxPoint x="950" y="-186" />
            </Array>
          </mxGeometry>
        </mxCell>
        <mxCell id="UEzPUAAOIrF-is8g5C7q-173" style="edgeStyle=orthogonalEdgeStyle;rounded=0;orthogonalLoop=1;jettySize=auto;html=1;startArrow=none;startFill=0;endArrow=open;endFill=0;strokeColor=#808080;strokeWidth=2;" parent="1" source="UEzPUAAOIrF-is8g5C7q-157" target="UEzPUAAOIrF-is8g5C7q-158" edge="1">
          <mxGeometry relative="1" as="geometry">
            <Array as="points">
              <mxPoint x="950" y="-135" />
              <mxPoint x="950" y="-186" />
            </Array>
          </mxGeometry>
        </mxCell>
        <mxCell id="UEzPUAAOIrF-is8g5C7q-174" style="edgeStyle=orthogonalEdgeStyle;rounded=0;orthogonalLoop=1;jettySize=auto;html=1;startArrow=none;startFill=0;endArrow=open;endFill=0;strokeColor=#808080;strokeWidth=2;" parent="1" source="UEzPUAAOIrF-is8g5C7q-161" target="UEzPUAAOIrF-is8g5C7q-153" edge="1">
          <mxGeometry relative="1" as="geometry">
            <Array as="points">
              <mxPoint x="1025" y="-394" />
            </Array>
          </mxGeometry>
        </mxCell>
        <mxCell id="UEzPUAAOIrF-is8g5C7q-144" value="Amazon CloudWatch" style="outlineConnect=0;fontColor=#232F3E;gradientColor=#F34482;gradientDirection=north;fillColor=#BC1356;strokeColor=#ffffff;dashed=0;verticalLabelPosition=bottom;verticalAlign=top;align=center;html=1;fontSize=12;fontStyle=0;aspect=fixed;shape=mxgraph.aws4.resourceIcon;resIcon=mxgraph.aws4.cloudwatch;labelBackgroundColor=#ffffff;spacingTop=5;" parent="1" vertex="1">
          <mxGeometry x="256" y="-794" width="78" height="78" as="geometry" />
        </mxCell>
        <mxCell id="UEzPUAAOIrF-is8g5C7q-145" value="Amazon SNS" style="outlineConnect=0;fontColor=#232F3E;gradientColor=#F34482;gradientDirection=north;fillColor=#BC1356;strokeColor=#ffffff;dashed=0;verticalLabelPosition=bottom;verticalAlign=top;align=center;html=1;fontSize=12;fontStyle=0;aspect=fixed;shape=mxgraph.aws4.resourceIcon;resIcon=mxgraph.aws4.sns;labelBackgroundColor=#ffffff;spacingTop=5;" parent="1" vertex="1">
          <mxGeometry x="416" y="-794" width="78" height="78" as="geometry" />
        </mxCell>
        <mxCell id="UEzPUAAOIrF-is8g5C7q-146" value="Amazon&lt;br&gt;CloudWatch Event&lt;br&gt;" style="outlineConnect=0;fontColor=#232F3E;gradientColor=none;fillColor=#BC1356;strokeColor=none;dashed=0;verticalLabelPosition=bottom;verticalAlign=top;align=center;html=1;fontSize=12;fontStyle=0;aspect=fixed;pointerEvents=1;shape=mxgraph.aws4.event_time_based;labelBackgroundColor=#ffffff;" parent="1" vertex="1">
          <mxGeometry x="46" y="-654" width="78" height="78" as="geometry" />
        </mxCell>
        <mxCell id="UEzPUAAOIrF-is8g5C7q-147" value="Amazon&lt;br&gt;CloudWatch Event&lt;br&gt;" style="outlineConnect=0;fontColor=#232F3E;gradientColor=none;fillColor=#BC1356;strokeColor=none;dashed=0;verticalLabelPosition=bottom;verticalAlign=top;align=center;html=1;fontSize=12;fontStyle=0;aspect=fixed;pointerEvents=1;shape=mxgraph.aws4.event_event_based;labelBackgroundColor=#ffffff;" parent="1" vertex="1">
          <mxGeometry x="46" y="-494" width="78" height="78" as="geometry" />
        </mxCell>
        <mxCell id="UEzPUAAOIrF-is8g5C7q-148" value="Lambda" style="outlineConnect=0;fontColor=#232F3E;gradientColor=#F78E04;gradientDirection=north;fillColor=#D05C17;strokeColor=#ffffff;dashed=0;verticalLabelPosition=bottom;verticalAlign=top;align=center;html=1;fontSize=12;fontStyle=0;aspect=fixed;shape=mxgraph.aws4.resourceIcon;resIcon=mxgraph.aws4.lambda;labelBackgroundColor=#ffffff;spacingTop=8;" parent="1" vertex="1">
          <mxGeometry x="286" y="-564" width="78" height="78" as="geometry" />
        </mxCell>
        <mxCell id="UEzPUAAOIrF-is8g5C7q-149" value="Amazon DynamoDB" style="outlineConnect=0;fontColor=#232F3E;gradientColor=#4D72F3;gradientDirection=north;fillColor=#3334B9;strokeColor=#ffffff;dashed=0;verticalLabelPosition=bottom;verticalAlign=top;align=center;html=1;fontSize=12;fontStyle=0;aspect=fixed;shape=mxgraph.aws4.resourceIcon;resIcon=mxgraph.aws4.dynamodb;labelBackgroundColor=#ffffff;" parent="1" vertex="1">
          <mxGeometry x="616" y="-682.5" width="78" height="78" as="geometry" />
        </mxCell>
        <mxCell id="UEzPUAAOIrF-is8g5C7q-150" value="Amazon SQS Queue" style="outlineConnect=0;fontColor=#232F3E;gradientColor=none;fillColor=#BC1356;strokeColor=none;dashed=0;verticalLabelPosition=bottom;verticalAlign=top;align=center;html=1;fontSize=12;fontStyle=0;aspect=fixed;pointerEvents=1;shape=mxgraph.aws4.queue;labelBackgroundColor=#ffffff;" parent="1" vertex="1">
          <mxGeometry x="286" y="-384" width="78" height="47" as="geometry" />
        </mxCell>
        <mxCell id="UEzPUAAOIrF-is8g5C7q-151" value="Lambda&lt;br&gt;Function&lt;br&gt;" style="outlineConnect=0;fontColor=#232F3E;gradientColor=none;fillColor=#D05C17;strokeColor=none;dashed=0;verticalLabelPosition=bottom;verticalAlign=top;align=center;html=1;fontSize=12;fontStyle=0;aspect=fixed;pointerEvents=1;shape=mxgraph.aws4.lambda_function;labelBackgroundColor=#ffffff;" parent="1" vertex="1">
          <mxGeometry x="286" y="-244" width="78" height="78" as="geometry" />
        </mxCell>
        <mxCell id="UEzPUAAOIrF-is8g5C7q-152" value="Amazon CloudWatch" style="outlineConnect=0;fontColor=#232F3E;gradientColor=#F34482;gradientDirection=north;fillColor=#BC1356;strokeColor=#ffffff;dashed=0;verticalLabelPosition=bottom;verticalAlign=top;align=center;html=1;fontSize=12;fontStyle=0;aspect=fixed;shape=mxgraph.aws4.resourceIcon;resIcon=mxgraph.aws4.cloudwatch;labelBackgroundColor=#ffffff;" parent="1" vertex="1">
          <mxGeometry x="486" y="-244" width="78" height="78" as="geometry" />
        </mxCell>
        <mxCell id="UEzPUAAOIrF-is8g5C7q-153" value="Amazon SNS&lt;br&gt;Topic&lt;br&gt;" style="outlineConnect=0;fontColor=#232F3E;gradientColor=none;fillColor=#BC1356;strokeColor=none;dashed=0;verticalLabelPosition=bottom;verticalAlign=top;align=center;html=1;fontSize=12;fontStyle=0;aspect=fixed;pointerEvents=1;shape=mxgraph.aws4.topic;labelBackgroundColor=#ffffff;" parent="1" vertex="1">
          <mxGeometry x="607" y="-428" width="78" height="67" as="geometry" />
        </mxCell>
        <mxCell id="UEzPUAAOIrF-is8g5C7q-154" value="AWS Cloud" style="points=[[0,0],[0.25,0],[0.5,0],[0.75,0],[1,0],[1,0.25],[1,0.5],[1,0.75],[1,1],[0.75,1],[0.5,1],[0.25,1],[0,1],[0,0.75],[0,0.5],[0,0.25]];outlineConnect=0;gradientColor=none;html=1;whiteSpace=wrap;fontSize=12;fontStyle=0;shape=mxgraph.aws4.group;grIcon=mxgraph.aws4.group_aws_cloud_alt;strokeColor=#232F3E;fillColor=none;verticalAlign=top;align=left;spacingLeft=30;fontColor=#232F3E;dashed=0;labelBackgroundColor=#ffffff;container=1;pointerEvents=0;collapsible=0;recursiveResize=0;" parent="1" vertex="1">
          <mxGeometry x="796" y="-734" width="320" height="311" as="geometry" />
        </mxCell>
        <mxCell id="UEzPUAAOIrF-is8g5C7q-155" value="" style="rounded=0;whiteSpace=wrap;html=1;dashed=1;labelBackgroundColor=#ffffff;fillColor=none;gradientColor=none;container=1;pointerEvents=0;collapsible=0;recursiveResize=0;" parent="1" vertex="1">
          <mxGeometry x="721" y="-344" width="185" height="310" as="geometry" />
        </mxCell>
        <mxCell id="UEzPUAAOIrF-is8g5C7q-156" value="Template" style="outlineConnect=0;fontColor=#232F3E;gradientColor=none;fillColor=#BC1356;strokeColor=none;dashed=0;verticalLabelPosition=bottom;verticalAlign=top;align=center;html=1;fontSize=12;fontStyle=0;aspect=fixed;pointerEvents=1;shape=mxgraph.aws4.template;labelBackgroundColor=#ffffff;" parent="1" vertex="1">
          <mxGeometry x="786" y="-282" width="65" height="78" as="geometry" />
        </mxCell>
        <mxCell id="UEzPUAAOIrF-is8g5C7q-157" value="Template" style="outlineConnect=0;fontColor=#232F3E;gradientColor=none;fillColor=#BC1356;strokeColor=none;dashed=0;verticalLabelPosition=bottom;verticalAlign=top;align=center;html=1;fontSize=12;fontStyle=0;aspect=fixed;pointerEvents=1;shape=mxgraph.aws4.template;labelBackgroundColor=#ffffff;" parent="1" vertex="1">
          <mxGeometry x="786" y="-174" width="65" height="78" as="geometry" />
        </mxCell>
        <mxCell id="UEzPUAAOIrF-is8g5C7q-158" value="Amazon S3&lt;br&gt;Bucket&lt;br&gt;" style="outlineConnect=0;fontColor=#232F3E;gradientColor=none;fillColor=#277116;strokeColor=none;dashed=0;verticalLabelPosition=bottom;verticalAlign=top;align=center;html=1;fontSize=12;fontStyle=0;aspect=fixed;pointerEvents=1;shape=mxgraph.aws4.bucket_with_objects;labelBackgroundColor=#ffffff;" parent="1" vertex="1">
          <mxGeometry x="1008.5" y="-225" width="75" height="78" as="geometry" />
        </mxCell>
        <mxCell id="UEzPUAAOIrF-is8g5C7q-159" value="Cross-Account&lt;br&gt;Role&lt;br&gt;" style="outlineConnect=0;fontColor=#232F3E;gradientColor=none;fillColor=#C7131F;strokeColor=none;dashed=0;verticalLabelPosition=bottom;verticalAlign=top;align=center;html=1;fontSize=12;fontStyle=0;aspect=fixed;pointerEvents=1;shape=mxgraph.aws4.role;labelBackgroundColor=#ffffff;" parent="1" vertex="1">
          <mxGeometry x="851" y="-576" width="78" height="44" as="geometry" />
        </mxCell>
        <mxCell id="UEzPUAAOIrF-is8g5C7q-160" value="CloudWatch&lt;br&gt;Event&lt;br&gt;" style="outlineConnect=0;fontColor=#232F3E;gradientColor=none;fillColor=#BC1356;strokeColor=none;dashed=0;verticalLabelPosition=bottom;verticalAlign=top;align=center;html=1;fontSize=12;fontStyle=0;aspect=fixed;pointerEvents=1;shape=mxgraph.aws4.event_event_based;labelBackgroundColor=#ffffff;" parent="1" vertex="1">
          <mxGeometry x="986" y="-716" width="78" height="78" as="geometry" />
        </mxCell>
        <mxCell id="UEzPUAAOIrF-is8g5C7q-161" value="Lambda&lt;br&gt;Function&lt;br&gt;" style="outlineConnect=0;fontColor=#232F3E;gradientColor=none;fillColor=#D05C17;strokeColor=none;dashed=0;verticalLabelPosition=bottom;verticalAlign=top;align=center;html=1;fontSize=12;fontStyle=0;aspect=fixed;pointerEvents=1;shape=mxgraph.aws4.lambda_function;labelBackgroundColor=#ffffff;" parent="1" vertex="1">
          <mxGeometry x="986" y="-584" width="78" height="78" as="geometry" />
        </mxCell>
      </root>
    </mxGraphModel>
  </diagram>
  <diagram id="a792kArXLOw6XXdVQYIJ" name="TaxRefund Service">
    <mxGraphModel dx="1166" dy="605" grid="1" gridSize="10" guides="1" tooltips="1" connect="1" arrows="1" fold="1" page="1" pageScale="1" pageWidth="827" pageHeight="1169" math="0" shadow="0">
      <root>
        <mxCell id="0" />
        <mxCell id="1" parent="0" />
        <mxCell id="73hB5APmF2K6rTJIVwmR-6" style="edgeStyle=orthogonalEdgeStyle;rounded=0;orthogonalLoop=1;jettySize=auto;html=1;entryX=0;entryY=0.5;entryDx=0;entryDy=0;startArrow=classic;startFill=1;" parent="1" source="73hB5APmF2K6rTJIVwmR-1" target="73hB5APmF2K6rTJIVwmR-3" edge="1">
          <mxGeometry relative="1" as="geometry" />
        </mxCell>
        <mxCell id="73hB5APmF2K6rTJIVwmR-1" value="TaxReturn Service" style="rounded=1;whiteSpace=wrap;html=1;" parent="1" vertex="1">
          <mxGeometry x="259" y="90" width="120" height="60" as="geometry" />
        </mxCell>
        <mxCell id="73hB5APmF2K6rTJIVwmR-7" style="edgeStyle=orthogonalEdgeStyle;rounded=0;orthogonalLoop=1;jettySize=auto;html=1;entryX=0;entryY=0.5;entryDx=0;entryDy=0;startArrow=classic;startFill=1;" parent="1" source="73hB5APmF2K6rTJIVwmR-2" target="73hB5APmF2K6rTJIVwmR-3" edge="1">
          <mxGeometry relative="1" as="geometry" />
        </mxCell>
        <mxCell id="73hB5APmF2K6rTJIVwmR-13" value="refund-status/{}" style="edgeStyle=orthogonalEdgeStyle;rounded=0;orthogonalLoop=1;jettySize=auto;html=1;entryX=0.5;entryY=0;entryDx=0;entryDy=0;" parent="1" source="73hB5APmF2K6rTJIVwmR-2" target="73hB5APmF2K6rTJIVwmR-9" edge="1">
          <mxGeometry relative="1" as="geometry" />
        </mxCell>
        <mxCell id="73hB5APmF2K6rTJIVwmR-2" value="TaxRefund Service" style="rounded=1;whiteSpace=wrap;html=1;" parent="1" vertex="1">
          <mxGeometry x="259" y="180" width="121" height="60" as="geometry" />
        </mxCell>
        <mxCell id="73hB5APmF2K6rTJIVwmR-5" value="" style="edgeStyle=orthogonalEdgeStyle;rounded=0;orthogonalLoop=1;jettySize=auto;html=1;" parent="1" source="73hB5APmF2K6rTJIVwmR-3" target="73hB5APmF2K6rTJIVwmR-4" edge="1">
          <mxGeometry relative="1" as="geometry" />
        </mxCell>
        <mxCell id="73hB5APmF2K6rTJIVwmR-3" value="IRA Integration Service" style="rounded=1;whiteSpace=wrap;html=1;" parent="1" vertex="1">
          <mxGeometry x="499" y="130" width="100" height="60" as="geometry" />
        </mxCell>
        <mxCell id="73hB5APmF2K6rTJIVwmR-4" value="IRA Service" style="rounded=1;whiteSpace=wrap;html=1;" parent="1" vertex="1">
          <mxGeometry x="679" y="130" width="100" height="60" as="geometry" />
        </mxCell>
        <mxCell id="73hB5APmF2K6rTJIVwmR-12" value="" style="edgeStyle=orthogonalEdgeStyle;rounded=0;orthogonalLoop=1;jettySize=auto;html=1;startArrow=classic;startFill=1;" parent="1" source="73hB5APmF2K6rTJIVwmR-9" target="73hB5APmF2K6rTJIVwmR-11" edge="1">
          <mxGeometry relative="1" as="geometry" />
        </mxCell>
        <mxCell id="73hB5APmF2K6rTJIVwmR-9" value="RefundETA Service" style="rounded=1;whiteSpace=wrap;html=1;" parent="1" vertex="1">
          <mxGeometry x="259" y="343" width="120" height="60" as="geometry" />
        </mxCell>
        <mxCell id="73hB5APmF2K6rTJIVwmR-11" value="LLM Server" style="rounded=1;whiteSpace=wrap;html=1;" parent="1" vertex="1">
          <mxGeometry x="259" y="470" width="120" height="60" as="geometry" />
        </mxCell>
        <mxCell id="73hB5APmF2K6rTJIVwmR-15" value="" style="edgeStyle=orthogonalEdgeStyle;rounded=0;orthogonalLoop=1;jettySize=auto;html=1;startArrow=classic;startFill=1;" parent="1" source="73hB5APmF2K6rTJIVwmR-14" target="73hB5APmF2K6rTJIVwmR-3" edge="1">
          <mxGeometry relative="1" as="geometry" />
        </mxCell>
        <mxCell id="73hB5APmF2K6rTJIVwmR-14" value="internal_id:&lt;div&gt;IRA_tax_uuid&lt;/div&gt;" style="shape=cylinder3;whiteSpace=wrap;html=1;boundedLbl=1;backgroundOutline=1;size=15;" parent="1" vertex="1">
          <mxGeometry x="503.5" y="220" width="91" height="70" as="geometry" />
        </mxCell>
      </root>
    </mxGraphModel>
  </diagram>
  <diagram id="v5WV3mev9-ySwh6CIsQ7" name="TPM">
    <mxGraphModel dx="1166" dy="639" grid="0" gridSize="10" guides="1" tooltips="1" connect="1" arrows="1" fold="1" page="1" pageScale="1" pageWidth="1169" pageHeight="827" background="#ffffff" math="0" shadow="0">
      <root>
        <mxCell id="0" />
        <mxCell id="1" parent="0" />
        <mxCell id="pP1fS14BJpQRi3pFXnAJ-10" value="&lt;b&gt;Data Storage&lt;/b&gt;" style="rounded=1;whiteSpace=wrap;html=1;strokeColor=default;align=center;verticalAlign=top;fontFamily=Helvetica;fontSize=7;fontColor=default;fillColor=default;dashed=1;shadow=0;" vertex="1" parent="1">
          <mxGeometry x="891" y="100" width="91" height="289" as="geometry" />
        </mxCell>
        <mxCell id="xrU2fLU9_C8OpUcWuUUY-8" style="edgeStyle=orthogonalEdgeStyle;rounded=0;orthogonalLoop=1;jettySize=auto;html=1;entryX=0.5;entryY=1;entryDx=0;entryDy=0;fontFamily=Helvetica;fontSize=12;fontColor=default;" edge="1" parent="1" source="xrU2fLU9_C8OpUcWuUUY-1" target="xrU2fLU9_C8OpUcWuUUY-2">
          <mxGeometry relative="1" as="geometry" />
        </mxCell>
        <mxCell id="xrU2fLU9_C8OpUcWuUUY-1" value="External Feeds&lt;div&gt;SFTP&lt;/div&gt;&lt;div&gt;Http/Https&lt;/div&gt;" style="ellipse;shape=cloud;whiteSpace=wrap;html=1;fontSize=8;" vertex="1" parent="1">
          <mxGeometry x="206" y="438" width="120" height="70" as="geometry" />
        </mxCell>
        <mxCell id="pP1fS14BJpQRi3pFXnAJ-50" style="edgeStyle=orthogonalEdgeStyle;rounded=0;orthogonalLoop=1;jettySize=auto;html=1;fontFamily=Helvetica;fontSize=12;fontColor=default;" edge="1" parent="1" source="xrU2fLU9_C8OpUcWuUUY-2" target="xrU2fLU9_C8OpUcWuUUY-10">
          <mxGeometry relative="1" as="geometry" />
        </mxCell>
        <mxCell id="xrU2fLU9_C8OpUcWuUUY-2" value="Data Ingestion" style="whiteSpace=wrap;html=1;fontSize=9;fontStyle=0" vertex="1" parent="1">
          <mxGeometry x="340" y="396" width="46.5" height="30" as="geometry" />
        </mxCell>
        <mxCell id="xrU2fLU9_C8OpUcWuUUY-9" style="edgeStyle=orthogonalEdgeStyle;rounded=0;orthogonalLoop=1;jettySize=auto;html=1;entryX=0;entryY=0.5;entryDx=0;entryDy=0;fontFamily=Helvetica;fontSize=12;fontColor=default;" edge="1" parent="1" source="xrU2fLU9_C8OpUcWuUUY-6" target="xrU2fLU9_C8OpUcWuUUY-2">
          <mxGeometry relative="1" as="geometry" />
        </mxCell>
        <mxCell id="xrU2fLU9_C8OpUcWuUUY-6" value="Internal Files&lt;div&gt;NFS&lt;/div&gt;" style="whiteSpace=wrap;html=1;shape=mxgraph.basic.document;strokeColor=default;align=center;verticalAlign=middle;fontFamily=Helvetica;fontSize=8;fontColor=default;fillColor=default;" vertex="1" parent="1">
          <mxGeometry x="216" y="391" width="60" height="40" as="geometry" />
        </mxCell>
        <mxCell id="xrU2fLU9_C8OpUcWuUUY-10" value="&lt;font style=&quot;font-size: 9px;&quot;&gt;Staging&lt;/font&gt;" style="sketch=0;pointerEvents=1;shadow=0;dashed=0;html=1;strokeColor=none;fillColor=#DF8C42;labelPosition=center;verticalLabelPosition=top;verticalAlign=bottom;align=center;outlineConnect=0;shape=mxgraph.veeam2.aws_s3;fontFamily=Helvetica;fontSize=12;fontColor=default;labelBackgroundColor=default;textShadow=0;" vertex="1" parent="1">
          <mxGeometry x="915" y="310" width="31.5" height="31.5" as="geometry" />
        </mxCell>
        <mxCell id="xrU2fLU9_C8OpUcWuUUY-16" value="&lt;font style=&quot;font-size: 6px;&quot;&gt;Pre-process&lt;/font&gt;" style="sketch=0;points=[[0,0,0],[0.25,0,0],[0.5,0,0],[0.75,0,0],[1,0,0],[0,1,0],[0.25,1,0],[0.5,1,0],[0.75,1,0],[1,1,0],[0,0.25,0],[0,0.5,0],[0,0.75,0],[1,0.25,0],[1,0.5,0],[1,0.75,0]];outlineConnect=0;fontColor=#232F3E;fillColor=light-dark(#df8c42, #d86d0c);strokeColor=#ffffff;dashed=0;verticalLabelPosition=top;verticalAlign=bottom;align=center;html=1;fontSize=12;fontStyle=1;aspect=fixed;shape=mxgraph.aws4.resourceIcon;resIcon=mxgraph.aws4.lambda;fontFamily=Helvetica;labelPosition=center;" vertex="1" parent="1">
          <mxGeometry x="1012" y="313" width="25.5" height="25.5" as="geometry" />
        </mxCell>
        <mxCell id="xrU2fLU9_C8OpUcWuUUY-17" style="edgeStyle=orthogonalEdgeStyle;rounded=0;orthogonalLoop=1;jettySize=auto;html=1;entryX=0;entryY=0.5;entryDx=0;entryDy=0;entryPerimeter=0;fontFamily=Helvetica;fontSize=12;fontColor=default;startArrow=classic;startFill=1;" edge="1" parent="1" source="xrU2fLU9_C8OpUcWuUUY-10" target="xrU2fLU9_C8OpUcWuUUY-16">
          <mxGeometry relative="1" as="geometry" />
        </mxCell>
        <mxCell id="xrU2fLU9_C8OpUcWuUUY-21" value="&lt;font style=&quot;font-size: 6px;&quot;&gt;Athena&lt;/font&gt;" style="outlineConnect=0;dashed=0;verticalLabelPosition=bottom;verticalAlign=top;align=center;html=1;shape=mxgraph.aws3.athena;fillColor=#F58534;gradientColor=none;strokeColor=default;fontFamily=Helvetica;fontSize=12;fontColor=default;labelPosition=center;fontStyle=1;spacing=-2;" vertex="1" parent="1">
          <mxGeometry x="1013.75" y="362" width="28" height="28" as="geometry" />
        </mxCell>
        <mxCell id="xrU2fLU9_C8OpUcWuUUY-23" style="edgeStyle=orthogonalEdgeStyle;rounded=0;orthogonalLoop=1;jettySize=auto;html=1;exitX=0.5;exitY=1;exitDx=0;exitDy=0;exitPerimeter=0;entryX=0.5;entryY=0.025;entryDx=0;entryDy=0;entryPerimeter=0;fontFamily=Helvetica;fontSize=12;fontColor=default;" edge="1" parent="1" source="xrU2fLU9_C8OpUcWuUUY-16" target="xrU2fLU9_C8OpUcWuUUY-21">
          <mxGeometry relative="1" as="geometry" />
        </mxCell>
        <mxCell id="pP1fS14BJpQRi3pFXnAJ-47" style="edgeStyle=orthogonalEdgeStyle;rounded=0;orthogonalLoop=1;jettySize=auto;html=1;fontFamily=Helvetica;fontSize=12;fontColor=default;startArrow=classic;startFill=1;" edge="1" parent="1" source="pP1fS14BJpQRi3pFXnAJ-1" target="pP1fS14BJpQRi3pFXnAJ-11">
          <mxGeometry relative="1" as="geometry">
            <Array as="points">
              <mxPoint x="878" y="228" />
              <mxPoint x="878" y="305" />
            </Array>
          </mxGeometry>
        </mxCell>
        <mxCell id="pP1fS14BJpQRi3pFXnAJ-1" value="Aurora PostgreSQL" style="sketch=0;outlineConnect=0;fontColor=#232F3E;gradientColor=none;strokeColor=#ffffff;fillColor=light-dark(#df8c42, #bdc7d4);dashed=1;verticalLabelPosition=bottom;verticalAlign=top;align=center;html=1;whiteSpace=wrap;fontSize=5;fontStyle=1;spacing=-3;shape=mxgraph.aws4.productIcon;prIcon=mxgraph.aws4.aurora;fontFamily=Helvetica;labelBackgroundColor=default;labelPosition=center;" vertex="1" parent="1">
          <mxGeometry x="916.5" y="210" width="30" height="30" as="geometry" />
        </mxCell>
        <mxCell id="pP1fS14BJpQRi3pFXnAJ-11" value="&lt;b&gt;Portfolio Management Platform&lt;/b&gt;" style="rounded=1;whiteSpace=wrap;html=1;strokeColor=default;align=center;verticalAlign=top;fontFamily=Helvetica;fontSize=7;fontColor=default;fillColor=default;dashed=1;shadow=0;" vertex="1" parent="1">
          <mxGeometry x="559" y="240" width="281" height="150" as="geometry" />
        </mxCell>
        <mxCell id="pP1fS14BJpQRi3pFXnAJ-12" value="&lt;font&gt;ECS on Fargate&lt;/font&gt;" style="sketch=0;outlineConnect=0;fontColor=#232F3E;gradientColor=none;strokeColor=#ffffff;fillColor=light-dark(#df8c42, #bdc7d4);dashed=0;verticalLabelPosition=bottom;verticalAlign=top;align=center;html=1;whiteSpace=wrap;fontSize=5;fontStyle=1;spacing=-3;shape=mxgraph.aws4.productIcon;prIcon=mxgraph.aws4.ecs;fontFamily=Helvetica;labelPosition=center;" vertex="1" parent="1">
          <mxGeometry x="579" y="260" width="30" height="30" as="geometry" />
        </mxCell>
        <mxCell id="pP1fS14BJpQRi3pFXnAJ-13" value="ECR" style="sketch=0;outlineConnect=0;fontColor=#232F3E;gradientColor=none;strokeColor=#ffffff;fillColor=light-dark(#df8c42, #bdc7d4);dashed=0;verticalLabelPosition=bottom;verticalAlign=top;align=center;html=1;whiteSpace=wrap;fontSize=5;fontStyle=1;spacing=-3;shape=mxgraph.aws4.productIcon;prIcon=mxgraph.aws4.ecr;fontFamily=Helvetica;labelPosition=center;horizontal=1;" vertex="1" parent="1">
          <mxGeometry x="579" y="320" width="30" height="30" as="geometry" />
        </mxCell>
        <mxCell id="pP1fS14BJpQRi3pFXnAJ-15" style="edgeStyle=orthogonalEdgeStyle;rounded=0;orthogonalLoop=1;jettySize=auto;html=1;fontFamily=Helvetica;fontSize=12;fontColor=default;" edge="1" parent="1" source="pP1fS14BJpQRi3pFXnAJ-14" target="pP1fS14BJpQRi3pFXnAJ-12">
          <mxGeometry relative="1" as="geometry" />
        </mxCell>
        <mxCell id="pP1fS14BJpQRi3pFXnAJ-14" value="Application Load Balancer" style="sketch=0;outlineConnect=0;fontColor=#232F3E;gradientColor=none;strokeColor=#ffffff;fillColor=light-dark(#df8c42, #bdc7d4);dashed=0;verticalLabelPosition=bottom;verticalAlign=top;align=center;html=1;whiteSpace=wrap;fontSize=5;fontStyle=1;spacing=-3;shape=mxgraph.aws4.productIcon;prIcon=mxgraph.aws4.application_load_balancer;fontFamily=Helvetica;labelPosition=center;" vertex="1" parent="1">
          <mxGeometry x="512" y="260" width="30" height="30" as="geometry" />
        </mxCell>
        <mxCell id="pP1fS14BJpQRi3pFXnAJ-18" value="Reporting" style="whiteSpace=wrap;html=1;fontSize=8;fontStyle=0" vertex="1" parent="1">
          <mxGeometry x="636" y="270" width="46.5" height="30" as="geometry" />
        </mxCell>
        <mxCell id="pP1fS14BJpQRi3pFXnAJ-19" value="Batch Manager" style="whiteSpace=wrap;html=1;fontSize=8;fontStyle=0" vertex="1" parent="1">
          <mxGeometry x="699.75" y="270" width="46.5" height="30" as="geometry" />
        </mxCell>
        <mxCell id="pP1fS14BJpQRi3pFXnAJ-49" style="edgeStyle=orthogonalEdgeStyle;rounded=0;orthogonalLoop=1;jettySize=auto;html=1;fontFamily=Helvetica;fontSize=12;fontColor=default;endArrow=none;endFill=0;startArrow=classic;startFill=1;" edge="1" parent="1" source="pP1fS14BJpQRi3pFXnAJ-20" target="xrU2fLU9_C8OpUcWuUUY-10">
          <mxGeometry relative="1" as="geometry" />
        </mxCell>
        <mxCell id="pP1fS14BJpQRi3pFXnAJ-20" value="ETL&lt;div&gt;Jobs&lt;/div&gt;" style="whiteSpace=wrap;html=1;fontSize=8;fontStyle=0;fillColor=#dae8fc;strokeColor=#6c8ebf;" vertex="1" parent="1">
          <mxGeometry x="761.25" y="310" width="38.75" height="30" as="geometry" />
        </mxCell>
        <mxCell id="pP1fS14BJpQRi3pFXnAJ-22" value="Config Mgr" style="whiteSpace=wrap;html=1;fontSize=8;fontStyle=0" vertex="1" parent="1">
          <mxGeometry x="636" y="310" width="46.5" height="30" as="geometry" />
        </mxCell>
        <mxCell id="pP1fS14BJpQRi3pFXnAJ-23" value="Trade Service&lt;span style=&quot;color: rgba(0, 0, 0, 0); font-family: monospace; font-size: 0px; text-align: start; text-wrap-mode: nowrap;&quot;&gt;%3CmxGraphModel%3E%3Croot%3E%3CmxCell%20id%3D%220%22%2F%3E%3CmxCell%20id%3D%221%22%20parent%3D%220%22%2F%3E%3CmxCell%20id%3D%222%22%20value%3D%22Reporting%22%20style%3D%22whiteSpace%3Dwrap%3Bhtml%3D1%3BfontSize%3D8%3BfontStyle%3D0%22%20vertex%3D%221%22%20parent%3D%221%22%3E%3CmxGeometry%20x%3D%2273.5%22%20y%3D%22320%22%20width%3D%2246.5%22%20height%3D%2230%22%20as%3D%22geometry%22%2F%3E%3C%2FmxCell%3E%3C%2Froot%3E%3C%2FmxGraphModel%3E&lt;/span&gt;" style="whiteSpace=wrap;html=1;fontSize=8;fontStyle=0" vertex="1" parent="1">
          <mxGeometry x="699.75" y="310" width="46.5" height="30" as="geometry" />
        </mxCell>
        <mxCell id="pP1fS14BJpQRi3pFXnAJ-25" style="edgeStyle=orthogonalEdgeStyle;rounded=0;orthogonalLoop=1;jettySize=auto;html=1;fontFamily=Helvetica;fontSize=12;fontColor=default;" edge="1" parent="1" source="pP1fS14BJpQRi3pFXnAJ-24" target="pP1fS14BJpQRi3pFXnAJ-14">
          <mxGeometry relative="1" as="geometry" />
        </mxCell>
        <mxCell id="pP1fS14BJpQRi3pFXnAJ-24" value="Amazon Cloudfront" style="sketch=0;outlineConnect=0;fontColor=#232F3E;gradientColor=none;strokeColor=#ffffff;fillColor=light-dark(#df8c42, #bdc7d4);dashed=0;verticalLabelPosition=bottom;verticalAlign=top;align=center;html=1;whiteSpace=wrap;fontSize=7;fontStyle=1;spacing=-3;shape=mxgraph.aws4.productIcon;prIcon=mxgraph.aws4.cloudfront;fontFamily=Helvetica;labelPosition=center;" vertex="1" parent="1">
          <mxGeometry x="424" y="260" width="30" height="30" as="geometry" />
        </mxCell>
        <mxCell id="pP1fS14BJpQRi3pFXnAJ-35" style="edgeStyle=orthogonalEdgeStyle;rounded=0;orthogonalLoop=1;jettySize=auto;html=1;fontFamily=Helvetica;fontSize=12;fontColor=default;endArrow=none;endFill=0;" edge="1" parent="1">
          <mxGeometry relative="1" as="geometry">
            <mxPoint x="254" y="195" as="sourcePoint" />
            <mxPoint x="418" y="275" as="targetPoint" />
            <Array as="points">
              <mxPoint x="338" y="195" />
              <mxPoint x="338" y="275" />
            </Array>
          </mxGeometry>
        </mxCell>
        <mxCell id="pP1fS14BJpQRi3pFXnAJ-29" value="Analyst" style="sketch=0;outlineConnect=0;fontColor=#232F3E;gradientColor=none;strokeColor=#232F3E;fillColor=#ffffff;dashed=0;verticalLabelPosition=bottom;verticalAlign=top;align=center;html=1;fontSize=9;fontStyle=0;aspect=fixed;shape=mxgraph.aws4.resourceIcon;resIcon=mxgraph.aws4.user;fontFamily=Helvetica;spacing=-3;" vertex="1" parent="1">
          <mxGeometry x="226" y="180" width="30" height="30" as="geometry" />
        </mxCell>
        <mxCell id="pP1fS14BJpQRi3pFXnAJ-34" style="edgeStyle=orthogonalEdgeStyle;rounded=0;orthogonalLoop=1;jettySize=auto;html=1;fontFamily=Helvetica;fontSize=12;fontColor=default;" edge="1" parent="1">
          <mxGeometry relative="1" as="geometry">
            <mxPoint x="224" y="255" as="sourcePoint" />
            <mxPoint x="422" y="275" as="targetPoint" />
            <Array as="points">
              <mxPoint x="308" y="255" />
              <mxPoint x="308" y="275" />
            </Array>
          </mxGeometry>
        </mxCell>
        <mxCell id="pP1fS14BJpQRi3pFXnAJ-30" value="Portfolio Manager&lt;div&gt;&lt;br&gt;&lt;/div&gt;" style="sketch=0;outlineConnect=0;fontColor=#232F3E;gradientColor=none;strokeColor=#232F3E;fillColor=#ffffff;dashed=0;verticalLabelPosition=bottom;verticalAlign=top;align=center;html=1;fontSize=9;fontStyle=0;aspect=fixed;shape=mxgraph.aws4.resourceIcon;resIcon=mxgraph.aws4.user;fontFamily=Helvetica;spacing=-3;" vertex="1" parent="1">
          <mxGeometry x="226" y="240" width="30" height="30" as="geometry" />
        </mxCell>
        <mxCell id="pP1fS14BJpQRi3pFXnAJ-36" style="edgeStyle=orthogonalEdgeStyle;rounded=0;orthogonalLoop=1;jettySize=auto;html=1;fontFamily=Helvetica;fontSize=12;fontColor=default;endArrow=none;endFill=0;" edge="1" parent="1">
          <mxGeometry relative="1" as="geometry">
            <mxPoint x="418" y="275" as="targetPoint" />
            <mxPoint x="254" y="325" as="sourcePoint" />
            <Array as="points">
              <mxPoint x="338" y="325" />
              <mxPoint x="338" y="275" />
            </Array>
          </mxGeometry>
        </mxCell>
        <mxCell id="pP1fS14BJpQRi3pFXnAJ-33" value="Admin/Support" style="sketch=0;outlineConnect=0;fontColor=#232F3E;gradientColor=none;strokeColor=#232F3E;fillColor=#ffffff;dashed=0;verticalLabelPosition=bottom;verticalAlign=top;align=center;html=1;fontSize=9;fontStyle=0;aspect=fixed;shape=mxgraph.aws4.resourceIcon;resIcon=mxgraph.aws4.user;fontFamily=Helvetica;spacing=-3;" vertex="1" parent="1">
          <mxGeometry x="226" y="310" width="30" height="30" as="geometry" />
        </mxCell>
        <mxCell id="pP1fS14BJpQRi3pFXnAJ-68" style="edgeStyle=orthogonalEdgeStyle;rounded=0;orthogonalLoop=1;jettySize=auto;html=1;fontFamily=Helvetica;fontSize=12;fontColor=default;" edge="1" parent="1" source="pP1fS14BJpQRi3pFXnAJ-40" target="pP1fS14BJpQRi3pFXnAJ-46">
          <mxGeometry relative="1" as="geometry" />
        </mxCell>
        <mxCell id="pP1fS14BJpQRi3pFXnAJ-40" value="&lt;b&gt;Analytic Service&lt;/b&gt;" style="rounded=1;whiteSpace=wrap;html=1;strokeColor=default;align=center;verticalAlign=top;fontFamily=Helvetica;fontSize=7;fontColor=default;fillColor=default;dashed=1;shadow=0;" vertex="1" parent="1">
          <mxGeometry x="650" y="100" width="185" height="130" as="geometry" />
        </mxCell>
        <mxCell id="pP1fS14BJpQRi3pFXnAJ-73" value="" style="edgeStyle=orthogonalEdgeStyle;rounded=0;orthogonalLoop=1;jettySize=auto;html=1;fontFamily=Helvetica;fontSize=12;fontColor=default;" edge="1" parent="1" source="pP1fS14BJpQRi3pFXnAJ-46" target="pP1fS14BJpQRi3pFXnAJ-72">
          <mxGeometry relative="1" as="geometry" />
        </mxCell>
        <mxCell id="pP1fS14BJpQRi3pFXnAJ-46" value="&lt;font style=&quot;font-size: 9px;&quot;&gt;Analytics&lt;/font&gt;" style="sketch=0;pointerEvents=1;shadow=0;dashed=0;html=1;strokeColor=none;fillColor=#DF8C42;labelPosition=center;verticalLabelPosition=top;verticalAlign=bottom;align=center;outlineConnect=0;shape=mxgraph.veeam2.aws_s3;fontFamily=Helvetica;fontSize=12;fontColor=default;labelBackgroundColor=default;textShadow=0;" vertex="1" parent="1">
          <mxGeometry x="915" y="148.5" width="31.5" height="31.5" as="geometry" />
        </mxCell>
        <mxCell id="pP1fS14BJpQRi3pFXnAJ-51" value="&lt;b&gt;Identity Service&lt;/b&gt;" style="rounded=1;whiteSpace=wrap;html=1;strokeColor=default;align=center;verticalAlign=top;fontFamily=Helvetica;fontSize=7;fontColor=default;fillColor=default;dashed=1;shadow=0;" vertex="1" parent="1">
          <mxGeometry x="444" y="101" width="166" height="81.5" as="geometry" />
        </mxCell>
        <mxCell id="pP1fS14BJpQRi3pFXnAJ-52" value="Amazon Cognito" style="sketch=0;outlineConnect=0;fontColor=#232F3E;gradientColor=none;strokeColor=#ffffff;fillColor=light-dark(#df8c42, #bdc7d4);dashed=0;verticalLabelPosition=bottom;verticalAlign=top;align=center;html=1;whiteSpace=wrap;fontSize=8;fontStyle=1;spacing=-3;shape=mxgraph.aws4.productIcon;prIcon=mxgraph.aws4.cognito;fontFamily=Helvetica;labelPosition=center;" vertex="1" parent="1">
          <mxGeometry x="470" y="124.5" width="30" height="30" as="geometry" />
        </mxCell>
        <mxCell id="pP1fS14BJpQRi3pFXnAJ-54" value="&lt;span style=&quot;&quot;&gt;&lt;font&gt;RBAC&lt;/font&gt;&lt;/span&gt;&lt;div&gt;REST API&lt;/div&gt;" style="sketch=0;points=[[0,0,0],[0.25,0,0],[0.5,0,0],[0.75,0,0],[1,0,0],[0,1,0],[0.25,1,0],[0.5,1,0],[0.75,1,0],[1,1,0],[0,0.25,0],[0,0.5,0],[0,0.75,0],[1,0.25,0],[1,0.5,0],[1,0.75,0]];outlineConnect=0;fontColor=#232F3E;fillColor=light-dark(#df8c42, #d86d0c);strokeColor=#ffffff;dashed=0;verticalLabelPosition=bottom;verticalAlign=top;align=center;html=1;fontSize=8;fontStyle=1;aspect=fixed;shape=mxgraph.aws4.resourceIcon;resIcon=mxgraph.aws4.lambda;fontFamily=Helvetica;labelPosition=center;spacing=-1;" vertex="1" parent="1">
          <mxGeometry x="543" y="127" width="25.5" height="25.5" as="geometry" />
        </mxCell>
        <mxCell id="pP1fS14BJpQRi3pFXnAJ-57" value="" style="line;strokeWidth=1;direction=south;html=1;strokeColor=default;align=center;verticalAlign=middle;fontFamily=Helvetica;fontSize=12;fontColor=default;fillColor=default;dashed=1;dashPattern=1 1;" vertex="1" parent="1">
          <mxGeometry x="390" y="57" width="10" height="464" as="geometry" />
        </mxCell>
        <mxCell id="pP1fS14BJpQRi3pFXnAJ-58" value="On Prem" style="text;strokeColor=none;align=center;fillColor=none;html=1;verticalAlign=middle;whiteSpace=wrap;rounded=0;fontFamily=Helvetica;fontSize=12;fontColor=default;" vertex="1" parent="1">
          <mxGeometry x="291" y="62" width="60" height="30" as="geometry" />
        </mxCell>
        <mxCell id="pP1fS14BJpQRi3pFXnAJ-63" style="edgeStyle=orthogonalEdgeStyle;rounded=0;orthogonalLoop=1;jettySize=auto;html=1;exitX=0.5;exitY=1;exitDx=0;exitDy=0;exitPerimeter=0;entryX=0.25;entryY=0;entryDx=0;entryDy=0;fontFamily=Helvetica;fontSize=12;fontColor=default;" edge="1" parent="1" source="pP1fS14BJpQRi3pFXnAJ-61" target="pP1fS14BJpQRi3pFXnAJ-11">
          <mxGeometry relative="1" as="geometry" />
        </mxCell>
        <mxCell id="pP1fS14BJpQRi3pFXnAJ-61" value="" style="outlineConnect=0;dashed=0;verticalLabelPosition=bottom;verticalAlign=top;align=center;html=1;shape=mxgraph.aws3.api_gateway;fillColor=#D9A741;gradientColor=none;strokeColor=default;fontFamily=Helvetica;fontSize=12;fontColor=default;" vertex="1" parent="1">
          <mxGeometry x="512" y="170" width="26.5" height="30" as="geometry" />
        </mxCell>
        <mxCell id="pP1fS14BJpQRi3pFXnAJ-64" value="Optimization" style="whiteSpace=wrap;html=1;fontSize=8;fontStyle=0" vertex="1" parent="1">
          <mxGeometry x="713" y="138.5" width="60" height="31.5" as="geometry" />
        </mxCell>
        <mxCell id="pP1fS14BJpQRi3pFXnAJ-65" value="Optimization" style="whiteSpace=wrap;html=1;fontSize=8;fontStyle=0" vertex="1" parent="1">
          <mxGeometry x="723" y="148.5" width="60" height="31.5" as="geometry" />
        </mxCell>
        <mxCell id="pP1fS14BJpQRi3pFXnAJ-66" value="Optimization" style="whiteSpace=wrap;html=1;fontSize=8;fontStyle=0" vertex="1" parent="1">
          <mxGeometry x="733" y="158.5" width="60" height="31.5" as="geometry" />
        </mxCell>
        <mxCell id="pP1fS14BJpQRi3pFXnAJ-67" value="&lt;font&gt;ECS on Fargate&lt;/font&gt;" style="sketch=0;outlineConnect=0;fontColor=#232F3E;gradientColor=none;strokeColor=#ffffff;fillColor=light-dark(#df8c42, #bdc7d4);dashed=0;verticalLabelPosition=bottom;verticalAlign=top;align=center;html=1;whiteSpace=wrap;fontSize=5;fontStyle=1;spacing=-3;shape=mxgraph.aws4.productIcon;prIcon=mxgraph.aws4.ecs;fontFamily=Helvetica;labelPosition=center;" vertex="1" parent="1">
          <mxGeometry x="660" y="135.5" width="30" height="30" as="geometry" />
        </mxCell>
        <mxCell id="pP1fS14BJpQRi3pFXnAJ-78" value="" style="edgeStyle=orthogonalEdgeStyle;rounded=0;orthogonalLoop=1;jettySize=auto;html=1;fontFamily=Helvetica;fontSize=12;fontColor=default;" edge="1" parent="1" source="pP1fS14BJpQRi3pFXnAJ-70" target="pP1fS14BJpQRi3pFXnAJ-66">
          <mxGeometry relative="1" as="geometry" />
        </mxCell>
        <mxCell id="pP1fS14BJpQRi3pFXnAJ-70" value="Data Service" style="whiteSpace=wrap;html=1;fontSize=8;fontStyle=0" vertex="1" parent="1">
          <mxGeometry x="761.25" y="270" width="46.5" height="30" as="geometry" />
        </mxCell>
        <mxCell id="pP1fS14BJpQRi3pFXnAJ-71" value="Amazon Redshift" style="sketch=0;outlineConnect=0;gradientColor=#b3b3b3;strokeColor=#666666;fillColor=#f5f5f5;dashed=0;verticalLabelPosition=bottom;verticalAlign=top;align=center;html=1;whiteSpace=wrap;fontSize=8;fontStyle=1;spacing=0;shape=mxgraph.aws4.productIcon;prIcon=mxgraph.aws4.redshift;fontFamily=Helvetica;labelPosition=center;" vertex="1" parent="1">
          <mxGeometry x="1050" y="149.25" width="30" height="30" as="geometry" />
        </mxCell>
        <mxCell id="pP1fS14BJpQRi3pFXnAJ-75" value="" style="edgeStyle=orthogonalEdgeStyle;rounded=0;orthogonalLoop=1;jettySize=auto;html=1;fontFamily=Helvetica;fontSize=12;fontColor=default;dashed=1;dashPattern=1 4;" edge="1" parent="1" source="pP1fS14BJpQRi3pFXnAJ-72" target="pP1fS14BJpQRi3pFXnAJ-71">
          <mxGeometry relative="1" as="geometry" />
        </mxCell>
        <mxCell id="pP1fS14BJpQRi3pFXnAJ-76" style="edgeStyle=orthogonalEdgeStyle;rounded=0;orthogonalLoop=1;jettySize=auto;html=1;fontFamily=Helvetica;fontSize=12;fontColor=default;" edge="1" parent="1" source="pP1fS14BJpQRi3pFXnAJ-72" target="pP1fS14BJpQRi3pFXnAJ-1">
          <mxGeometry relative="1" as="geometry">
            <Array as="points">
              <mxPoint x="989" y="190" />
              <mxPoint x="990" y="225" />
            </Array>
          </mxGeometry>
        </mxCell>
        <mxCell id="pP1fS14BJpQRi3pFXnAJ-80" style="edgeStyle=orthogonalEdgeStyle;rounded=0;orthogonalLoop=1;jettySize=auto;html=1;entryX=1;entryY=0.5;entryDx=0;entryDy=0;fontFamily=Helvetica;fontSize=12;fontColor=default;" edge="1" parent="1" source="pP1fS14BJpQRi3pFXnAJ-72" target="pP1fS14BJpQRi3pFXnAJ-77">
          <mxGeometry relative="1" as="geometry">
            <Array as="points">
              <mxPoint x="989" y="365" />
            </Array>
          </mxGeometry>
        </mxCell>
        <mxCell id="pP1fS14BJpQRi3pFXnAJ-81" value="&lt;font style=&quot;font-size: 8px;&quot;&gt;Refresh Tableau Dashboard&lt;/font&gt;" style="edgeLabel;html=1;align=center;verticalAlign=middle;resizable=0;points=[];strokeColor=default;fontFamily=Helvetica;fontSize=12;fontColor=default;fillColor=default;" vertex="1" connectable="0" parent="pP1fS14BJpQRi3pFXnAJ-80">
          <mxGeometry x="0.4901" y="-2" relative="1" as="geometry">
            <mxPoint as="offset" />
          </mxGeometry>
        </mxCell>
        <mxCell id="pP1fS14BJpQRi3pFXnAJ-72" value="ETL&lt;div&gt;Jobs&lt;/div&gt;" style="whiteSpace=wrap;html=1;fontSize=8;fontStyle=0;fillColor=#dae8fc;strokeColor=#6c8ebf;" vertex="1" parent="1">
          <mxGeometry x="970" y="150" width="38.75" height="30" as="geometry" />
        </mxCell>
        <mxCell id="pP1fS14BJpQRi3pFXnAJ-77" value="Tableau Server" style="whiteSpace=wrap;html=1;fontSize=8;fontStyle=0" vertex="1" parent="1">
          <mxGeometry x="636" y="350" width="44" height="30" as="geometry" />
        </mxCell>
        <mxCell id="pP1fS14BJpQRi3pFXnAJ-79" value="AWS Cloud" style="text;strokeColor=none;align=center;fillColor=none;html=1;verticalAlign=middle;whiteSpace=wrap;rounded=0;fontFamily=Helvetica;fontSize=12;fontColor=default;" vertex="1" parent="1">
          <mxGeometry x="415" y="61" width="86" height="30" as="geometry" />
        </mxCell>
        <mxCell id="pP1fS14BJpQRi3pFXnAJ-82" value="&lt;h1 style=&quot;margin-top: 0px;&quot;&gt;&lt;font style=&quot;font-size: 12px;&quot;&gt;&amp;nbsp; Metrics&lt;/font&gt;&lt;/h1&gt;&lt;p style=&quot;line-height: 100%;&quot;&gt;&amp;nbsp; - 40+ ETL Jobs with feeds containing&lt;span style=&quot;background-color: transparent; color: light-dark(rgb(0, 0, 0), rgb(255, 255, 255));&quot;&gt;&amp;nbsp;million records from external data providers and internal departments (capital market,&amp;nbsp; &amp;nbsp; &amp;nbsp;private equity, credit, real assets)&lt;/span&gt;&lt;/p&gt;&lt;p&gt;&lt;span style=&quot;background-color: transparent; color: light-dark(rgb(0, 0, 0), rgb(255, 255, 255));&quot;&gt;&amp;nbsp; - Customized jobs dependency (Opt-out AWS Step function)&lt;/span&gt;&lt;/p&gt;" style="text;html=1;whiteSpace=wrap;overflow=hidden;rounded=0;fontFamily=Helvetica;fontSize=8;spacing=0;fillColor=#d5e8d4;strokeColor=#82b366;" vertex="1" parent="1">
          <mxGeometry x="431" y="431" width="451" height="86" as="geometry" />
        </mxCell>
      </root>
    </mxGraphModel>
  </diagram>
</mxfile>
